<mxfile host="Electron" modified="2023-03-21T11:07:00.458Z" agent="5.0 (Macintosh; Intel Mac OS X 10_15_7) AppleWebKit/537.36 (KHTML, like Gecko) draw.io/20.8.16 Chrome/106.0.5249.199 Electron/21.4.0 Safari/537.36" etag="qnuMlB1-cdVXCvtNfAIO" version="20.8.16" type="device" pages="2"><diagram name="数据中台技术架构图" id="JBZHbjwEhpAROHOcrjpn">7Z3db6O4FsD/Gh4H+fvjkaTp7Gq10kqz0n28YhqaRkNDROm0vX/9tYlJcewkdKa0ENOHQgyYxL9zzDnHxybC8/vnr2W6vfu7WGZ5hMDyOcJXEUKIAqY2uuTFlBBGdiWrcr3clcHXgm/r/2WmEJjSx/Uye7BOrIoir9Zbu/Cm2Gyym8oqS8uyeLJPuy1y+67bdJU5Bd9u0twt/c96Wd3tSgXir+V/ZOvVXXNnyOTuyH3anGx+ycNduiyeWkV4EeF5WRTVbu/+eZ7luvWadtldd33k6P6Lldmm6nIBf/4XFj9e/vwJtqvsv9nLLaD4i6nlZ5o/mh9svmz10rRAWTxulpmuBER49nS3rrJv2/RGH31S0FXZXXWfq09Q7ebp9yyfpTc/VvVl8yIvSnVoU2zU+bNl+nBX16RPfajK4se+UXXJNivX91mVlbr+9WZlim/Xed5UFCGciKvkar6voHWEUD6TV/qKYlO1yuEVppSrcvNjs7LKno+2ItyzUVKdFeoLlS/qlEakgcFpBJpg8/npVTqQMGV3bclgpjA1Erna1/0KTe0Ybm9giNh5iBqHRmXDtHgoDarS9SYrzcHTKN/cxEZB0+/NVwJvbXpitzzkbsszT8MTyHtq+Ab9Z2jPKk8fHkyt+54FDE1bKDyvLZT4tIX2Bu0Tu7xBsTnsySCXDhtBfWwA7osNmtj42QDYjU1vDxmMXTQLFkkazYDeEVdRsqhL5np/QSORRAmMFiSaXUUSRwsezXA0mzlAVStVTjsbQmm+Xm3UxxvVbvrBZFEy57Rw6zZfK9stMZfdr5dLfRuvmNiCdP5p9818ZdgzeghiAJAkEHJGOKDSlgRIYsoJlUL1m5BQwV3BkHFzrRAIU+KKCUaxIIxDitFuS/sSG3Jeo9Xja6t3b/PsOdEmu2rIbLM0u1c3+km3vrFJH/QC5seL3ZXGi6Ax331ubEz5Jqtmmd2mj7krmu0uYPdbsqXjQ5yl3X4AevS4KSuzPK3WP+3qfZTMHf4p1urGLWFClvTwgxoeisfyJjMXtX0Hpx4Yc8qAbP5ZteKDWqu0XGWVU2stQPsm+A2ZopNMfaJMEQBiRGyxQr8mVljKWMqjYoU+Vqw6uFGTWPUmVlS+m1hRMSSx4pNYfaJYcfFuYsX5kMRKTGL1iWIl36+3koPqreR5sQrCAz8INn4hUnllmBHJMNVbo34taVM+uvbcXv+QK32MxkxiggGj9faE3P2W20U8kUntgCtPHNY7M+2n9wh2UCxZ7VFjapxqapPFIgaUUEQp4URtkUsWili8Xk+4C5bgmEvKECC43vbF1RO8DJcrApcDFk1gW34hscE2YEZJ1hc4DZYsERdE1hPbDJesau6L6Yw9AcZwwfILMp88Ib5wwcoLMp/cIBv9GjBaXLui7UFAiy0EypuVhqvmS4fM1hPpWtBoNo/Ebgh6EQkSMGt1PIbC4ks8qVFS8/RA7CthgLiRpKBVktCzKglBSyXJgFWSuuGloNnqsas2W+KgHU1vS90IU9BoOb4ctG6MKWi0gl8OWl+QieqMPLlLylNsWZ2mt4gSWmfnUb0TCmqPjUQ9qcgfbSNRXwTJNW19aZazJJIgGH77JMZTBi77SHL+SELCdB+qe9Ikml1rlgqSmGtgyVVICncIzKttHwrMk4bjVywYCR4tZCRnkWAOsClb2eYMmJWtbCcvkNp4ek1WltgRgiElK9MjkQbV1dYBBvU/EXUJjJrnRAC6/AXCw2QIT/YD8iTb8N602ZOm4tFmEs2E7ni1vXOtDwWLDAK3//UiI7IvZsyXk8L0NBEBzMSR5Np4IdrqIXpn5vbAwTBjsCMzSHtj5ss3UUbNte4Utb0Da3hCa9ts52kw7U5OfSQXXeHh3uC5/r6vk9z5G8B0khJOJk+XiNCFmDzMHziYBleayO5BHugQRlZYt6hBsMwYG+SAGPNllUzYrJkazTTnIWHzRXombO0skuEx6xbsEdGMNq5GEiV8snzOPAyZ5tiamm6Bh1yOyfLxGD49quxoJrowyeL9JBe9dSAOap5LJz0/NloyqfeBrRsLenThCQ5JXKt1o96D1u4OSwQEqd2+kNKA9Nlvawmmh6sXMhK4DsA7Gh6KrYU4j1/1S6mqraGAx6SVsMsc1AiKGONWyoLwGGUfk7Hgs9BolBAdQJxIIwZITOCx3JRRke4wUT3ErlgQEu/7U7V113EaUsfsG28L1uVFAMdt3bL9IEFpvNdMvXXBDiZvDE7ZnnY6g3rAQnas2x0VWeTR2DrOobmqh6rUy/EFNzBOCbW6VDhewEcWZJxHybweo50bw0nvJLUFJXROWiikOcJxG9SISfvHe84Owk/hjjNdwalwh2Ag5khKZWuDeusIyJDCHdCNd/yRLotiG466E+vBfTC7Sk9Ol0RIQCHQ2yFruxsD+eslX2+CIYkwjoE4al6PCaUb5LhWJH8EgxLrwYRWuAqS0aJ0oxiKUBkOSkql9bhkoyXphjK+llm22eaP98HQPG0cj4gmcpOK/802D0V5nRdPweAUgsUXYfwgNx7lQOy8qulDlZbVGxY7rc9vljQVTYFZ85RF1oqn9oKo+mDTnqyTj9MUfdhaqPsJAPabPN5pmXnCY9kerrDkTyg3SAkh55hrYeTCrr7zGvQnb8KVA6AsR8oZI/XWvsmRZVOVdKQvrdO2+oSHX/2hXMqYQKYOYKm37EAfdnd71Y53WK+10Y9JYUalMJQoaaV83+Xa1tQ7Kczpm3yMwpz5Dp+gMB3yviaFGZzCcMnjg2G291ESt+KPUQzPfT9BGc7rQhBD87CJ1JyYLel9taA4EI73M4RPZTYiVuvz91LtrfReKz/GPVQvA6Ktft8hvQyI8B3i+qoE+g/pRQ3GOzW+LyFC8kCjkaCxwK0/R6gaT82eECj7EqoOryIJQt8P3yT6+eruW3ng19S9HuSV3quELteLkLiHmrf0edV93O/t6ysgigau7exjE+8GpeAQcFvF90sWtg1W7tFx2dsbNJkbeDZPYIEDznSth/vk0eCloqS0qpWo4ea6Did8yd1otH8+SgLqRYao/u+xpC6V9en0unGh9q2M4Z1iuFs0SNaow0m/oifXzRwXao+b7EVtErG4nhwsRTCoGcOKVKsHHzHqbm+5rpcCk7v1/aBZ70btmBkrc30oFPgCXo6ed3hXdRDuMTpIi8bAnQXsffs8BLgvNr7FM6YZ/b/9lGbyxIx+xX1MM/r5kdmjwTtY5JSDhVXvOp4uuusqrsE6WOKEgzUu1KdCopODpRwseMLwGhfqbqu5BuxgkRMO1qhQi24RssnBajlYI9Bz9bEsiqqdnaDa/O7vYpnpM/4P</diagram><diagram id="5oO0zdge0b_lwBmciEEE" name="第 2 页">7V1ZU+PGFv41ekxX78ujBPZMKnduJWFSd3kTWINdYyyuMGHIr7/naLGWbsCkkEdK4AHJbVkW39dnP91E4uzm24civV1/ylfZNuJ09S0S5xHnXFALBxx5rEYYd6oauS42q3qsHbjY/JHVg7Qevd+ssrvehfs83+43t/3Bq3y3y672vbG0KPKH/mVf8m3/W2/T68wbuLhKt/7ovzar/boatdy04x+zzfW6+WamXfXOTdpcXP8ld+t0lT90hsQiEmdFnu+rs5tvZ9kW0WtwqT63fOLdw4MV2W5/zAeW6friE6ePN+o2/ef1bmHVb7c/1Hf5Pd3e139w/bD7xwaBIr/frTK8CY1E8rDe7LOL2/QK330A0mFsvb/ZwisGp9v0Mtsm6dXX6/JjZ/k2L+CtXb6D65NVercu74SX3u2L/OsBVBy5zYrNTbbPCrz/ZnddDwO1+3Szy4r6EepHzop99u1JLNgBYZibWQ63LR7hkvoDkhJbz8N6Ykorq9cPLcta19StuwyLejCtZ9b14e4t+HBS4/8KLrT8fmS8AaaMGtmDVDQy3IGUKe1DqsxYkPKXEUVsELc+sj1whhPweVyfhLJWUell89X09dO2BzAzPsChKSuZGQlfNesZK9nL85VS5wOqR1MBPp4LHYHJTCie2PMoXkQLeBlHTkYLg79j62EOkOwPGnYAYrrdXO/g5RWAhDM6+bLZbgfXdBhBgDdgDuP6Yzeb1Qq/Jshkn+vnyfwCQnVRP/Jb8UkJpdxJxoyWhiqr+/xyQZSRylklKZPKGo9u68jhw5YLJX3uBSdWasOU4NVRjTQX2BHKa8rC1ddVwjGijRaKCi0dHAOixpC/9ocHBE8R7YQUVKvyyMbC3jfFPz1uN7uI6y1K1mUBZ9d4htIYy8jFKI1JEiWlWMLvmJeCeobSC8+ycDgCTsbCogzHDC+DE2fGJPUteOSWNPaj5lJRSqT1CWSMWBEwP3wslgLmJ6Au4QQAV0iHXUYxPCH9Nbvbf7nHL4h//nHiBDDpQG31CJCUEy08AgTyEiJAEDsWBWGLlQDUrJ7/gLlPClCQXl5u9nDy6ZeJEyAdJcLHn4fwPyn4jQPZA7+a5MtSz5gITCCOgBaqTmw5AnSA5qETx50pBvaga44H7pol1ClppFRcwTFgUuAS/NzBJwjSY5zSnEpRHseiKmDMgYaYRuCFoCU4j5JFaTkEWpHKlrjlxBkS1BEhOwx5BDHaIciPsCdEkAjbkmVpOSxKVDyq//UWikrTlwSGsbnwEUiGHGXbJ82QAxeJmecEZj4a7QnnC2xOSQc6ubwOUZPSTQbf0E5dowFsPREaZrRmRJAMeAfzjR8Nl6SMG2cRPzaZpRe0l0Prjw6Ai1wSNemK90SOcMSqTiLH9aeC5ATzN00ex3lTYUppnCb6/WuIoRaBuH9Kgue7cefpPv13KHHjy6PEeBV8cvD3wBt3U/cmApkBIxSRAb9OhiJTTppqzNvz4Ltvc8q5GC7IwPYbYUiT7egiy+0TSa8RwZ152aWvUizj5KAX4Ohn5SelYEIJL4jWzyPHmrD9bOKzm6l+4cvibA9MbXnydGLjLg/QjU0TQsRY7pob3uC0EusGkEti/AwuA8+n8R1PBbkNQC7LCmOVwXWYk6ri62TqKUMlMEA7CumgRRwRZheAWePcjc8QXTipXBE8iUufBJyQqYfLpZ3sBLtDvaKI4Z1w2WdhMtGyCufS3bJkw2DBztK6eJeUiSenUQu9R2xHRGwWnCTDneOG0vLoTYQpRWzKD94/pqs8v524MP6ALDjXkSfbYwE8LXzbUcWok3Cccv5X+WFzXYGfOAdykIPnPQ4EmhjRcjBlBvxQegkEfJ08A6UUdLqA+lIgGXYBzYMBP4gGYIuZMNCocsSxz4DVhHX1UMA7mw4Hfqz9ociy3e32/mbyPJS6SHaI6PEAoPXswZRZ8KPuz9nuLi+W2/xhHjS0OA7Ksrqy2nOgwYbKGmWY4miv/80lZfRYVWf9Dre/qZPMGLUQLrVucl8etVKEqbnUNazvoP0XW7q+TVwcQcg4GcQn2mFFKSB4JpiNUWO1f1vf5fpQpF82u3SGoJbRf8i0h0EdMfdiA8WIsvtw8q2H1oFK6PuvVR2izYUHpi0HHcADCI9YkrC+m/TxfHkR7peuuxBVlFhsCum1ieqyHl62jCR6dg1xgYqcVow0QWCHJFAi4eT6aLb72LUl8XnkbEkTf19b0l8x2F1bMiBZEsnnYrpZkyJ/sbnOneF5XXhh73Ohngvs2XVGkmLfa2edkZ9nm9Js0KGamz8ZbLmoxTZNS5PXxNR5pSChGXEhN68d7jJg2hu8PeihqltIG9d1IYUhVbLw7Wm838LDTZ4LNfQOZajOz2TQNbSUuLFmvzl69qty9VZZGY1NvXqrWsYFwe97714b5DJOnHwqyK0WBXQspd93MCXlaENlwaClPC9dWRc5V66sGcrpr+nuGpievKBqIvzgokkYqtCiP0VEICNlx4qRYX55lPxc4M3X2f0MNKEgg5KQ0ZSICSQfWGg55RDOZreE77YFAsj6od/uma072Gm37nABh3rEmfj6jrznGPex/n5AMhpSuAfrq8u+JPp3tr6vY7KNXiXTgjnptFVKDCpBjjhhmAZzyrhxzPmLK8AXxnHulHIGBC6QueCKgFPnLHyL4MYctn4aYY74FuA/afH9WwP+FDXgD7lBhdocRnr2gJNGqwyyek0/7AgmIZA0mpxJsK7vpgTtQRN+9NTYaPsOMRpYTjoHg6BfNghBJEc0CKGFoFV+OGkzU+8G4Ugmm3492Y/RBo4+4ZqCJldGa4mLIj15Oi5Go9Uy46r7czxz4Put5/n2dj2BZrE/xQ0uQXUdcJuNgBr1JohW3AqjHAPD3rier2wY4KTpxayOYwXQTa9nr/b2GF6Ohc0CFr09iKodPW3z+QibDKpBO3S5bY4B14hRcKBEqDZKzSHleJKikPBFp+7xC/Ez3NXllDsZjcAPdwYkybU/gV2OWrIUDS05toSfki/ue74fN79nR69uTHBRY71/3KirG0ega7hqCfmhVB7UnArJkzvs83kafnx/ue7YDNXBk2UUJ2VBhWJp29+f56QbkIxBmV8OVwriHdwZuKYttIMCI9yekDR3XGX8RW03Rw9zDLOniZRGaKMwv6+b4LThXwgihWHCaqvZwbfp8K9sb0kRDWwYy2Fatc2OVDbpiBECYN99qWtAuCzIYlIqsbV42maLrTiZmZx6ngpwgMtoHfiYVGgWsnwn9lQY8yPqz9kfIcXqCSputMVaxZr4weG06eFOEz5Qo+VWT5j6UFpjj9H3900Y80upF/8rl00d450oFKGkXAsJJjtWY3L0Bpzgml4QjvanX5OYyj4MjPmNBsvt/c1TLqOpN9PClm5zxAY10yJFDTcNerlX8vSE+KWiz8Vml7++VbLvGR42m8W3BMbS0+YqtK8smp1QW8ip95UNbqzp5ydm1pxqDAfEO75VD/xZ7Q7IQoFwkt4F1ZrD5gy3qC0L5pMOxCkct0/Yo9GD5LeQIjPYn0m1/9mi220cVnOjseN7zZ8eL375xxM67q9GirFDUsIt4OJtSIGX7X+RKd/r/DMesfg/</diagram></mxfile>
<mxfile host="app.diagrams.net" modified="2023-03-21T14:56:22.511Z" agent="5.0 (X11; Linux x86_64) AppleWebKit/537.36 (KHTML, like Gecko) Chrome/110.0.0.0 Safari/537.36" etag="iEeju8PQYJVilBMqTQyj" version="21.0.8" type="github" pages="3">
  <diagram name="数据中台技术架构图-1" id="JBZHbjwEhpAROHOcrjpn">
    <mxGraphModel dx="2901" dy="2196" grid="1" gridSize="10" guides="1" tooltips="1" connect="1" arrows="1" fold="1" page="1" pageScale="1" pageWidth="827" pageHeight="1169" math="0" shadow="0">
      <root>
        <mxCell id="0" />
        <mxCell id="1" parent="0" />
        <mxCell id="7xT1okyIv0pge_eyf053-1" value="" style="rounded=0;whiteSpace=wrap;html=1;labelBackgroundColor=none;dashed=1;strokeWidth=1;perimeterSpacing=1;fillColor=#A8DADC;strokeColor=#457B9D;fontColor=#1D3557;" parent="1" vertex="1">
          <mxGeometry x="200" y="430" width="280" height="160" as="geometry" />
        </mxCell>
        <mxCell id="7xT1okyIv0pge_eyf053-26" value="" style="group;rounded=0;dashed=1;container=0;labelBackgroundColor=none;fontColor=#1D3557;" parent="1" vertex="1" connectable="0">
          <mxGeometry x="40" y="170" width="60" height="417" as="geometry" />
        </mxCell>
        <mxCell id="7xT1okyIv0pge_eyf053-30" value="" style="rounded=0;whiteSpace=wrap;html=1;labelBackgroundColor=none;dashed=1;glass=0;shadow=0;fillColor=#A8DADC;strokeColor=#457B9D;fontColor=#1D3557;" parent="1" vertex="1">
          <mxGeometry x="510" y="430" width="540" height="157" as="geometry" />
        </mxCell>
        <mxCell id="7xT1okyIv0pge_eyf053-31" value="" style="rounded=0;whiteSpace=wrap;html=1;labelBackgroundColor=none;dashed=1;fillColor=#A8DADC;strokeColor=#457B9D;fontColor=#1D3557;" parent="1" vertex="1">
          <mxGeometry x="200" y="179" width="850" height="103" as="geometry" />
        </mxCell>
        <mxCell id="7xT1okyIv0pge_eyf053-32" value="" style="rounded=0;whiteSpace=wrap;html=1;labelBackgroundColor=none;dashed=1;fillColor=#A8DADC;strokeColor=#457B9D;fontColor=#1D3557;" parent="1" vertex="1">
          <mxGeometry x="200" y="101" width="850" height="60" as="geometry" />
        </mxCell>
        <mxCell id="7xT1okyIv0pge_eyf053-33" value="数据服务体系" style="text;strokeColor=none;align=center;fillColor=none;html=1;verticalAlign=middle;whiteSpace=wrap;rounded=0;labelBackgroundColor=none;fontStyle=1;fontColor=#1D3557;" parent="1" vertex="1">
          <mxGeometry x="210.00294117647059" y="114.57459854014587" width="89.11764705882354" height="32.846715328467155" as="geometry" />
        </mxCell>
        <mxCell id="7xT1okyIv0pge_eyf053-34" value="" style="shape=flexArrow;endArrow=classic;html=1;rounded=0;width=8;endSize=5.7;endWidth=9;labelBackgroundColor=none;fontColor=default;strokeColor=#457B9D;" parent="1" edge="1">
          <mxGeometry width="50" height="50" relative="1" as="geometry">
            <mxPoint x="212" y="71" as="sourcePoint" />
            <mxPoint x="211.7560975609756" y="31" as="targetPoint" />
          </mxGeometry>
        </mxCell>
        <mxCell id="7xT1okyIv0pge_eyf053-35" value="" style="shape=flexArrow;endArrow=classic;html=1;rounded=0;width=8;endSize=5.7;endWidth=9;labelBackgroundColor=none;fontColor=default;strokeColor=#457B9D;" parent="1" edge="1">
          <mxGeometry width="50" height="50" relative="1" as="geometry">
            <mxPoint x="400.24" y="72" as="sourcePoint" />
            <mxPoint x="399.9960975609756" y="32" as="targetPoint" />
          </mxGeometry>
        </mxCell>
        <mxCell id="7xT1okyIv0pge_eyf053-36" value="" style="shape=flexArrow;endArrow=classic;html=1;rounded=0;width=8;endSize=5.7;endWidth=9;labelBackgroundColor=none;fontColor=default;strokeColor=#457B9D;" parent="1" edge="1">
          <mxGeometry width="50" height="50" relative="1" as="geometry">
            <mxPoint x="590.24" y="72" as="sourcePoint" />
            <mxPoint x="589.9960975609756" y="32" as="targetPoint" />
          </mxGeometry>
        </mxCell>
        <mxCell id="7xT1okyIv0pge_eyf053-37" value="" style="shape=flexArrow;endArrow=classic;html=1;rounded=0;width=8;endSize=5.7;endWidth=9;labelBackgroundColor=none;fontColor=default;strokeColor=#457B9D;" parent="1" edge="1">
          <mxGeometry width="50" height="50" relative="1" as="geometry">
            <mxPoint x="780.24" y="72" as="sourcePoint" />
            <mxPoint x="779.9960975609756" y="32" as="targetPoint" />
          </mxGeometry>
        </mxCell>
        <mxCell id="7xT1okyIv0pge_eyf053-38" value="" style="shape=flexArrow;endArrow=classic;html=1;rounded=0;width=8;endSize=5.7;endWidth=9;labelBackgroundColor=none;fontColor=default;strokeColor=#457B9D;" parent="1" edge="1">
          <mxGeometry width="50" height="50" relative="1" as="geometry">
            <mxPoint x="990.24" y="72" as="sourcePoint" />
            <mxPoint x="989.9960975609756" y="32" as="targetPoint" />
          </mxGeometry>
        </mxCell>
        <mxCell id="7xT1okyIv0pge_eyf053-39" value="" style="rounded=0;whiteSpace=wrap;html=1;labelBackgroundColor=none;dashed=1;fillColor=#A8DADC;strokeColor=#457B9D;fontColor=#1D3557;" parent="1" vertex="1">
          <mxGeometry x="40" y="-49.00364963503648" width="1010.0000000000002" height="65.69343065693431" as="geometry" />
        </mxCell>
        <mxCell id="7xT1okyIv0pge_eyf053-40" value="网络" style="rounded=0;whiteSpace=wrap;html=1;labelBackgroundColor=none;fillColor=#A8DADC;strokeColor=#457B9D;fontColor=#1D3557;" parent="1" vertex="1">
          <mxGeometry x="60.0023529411765" y="-38.05452554744522" width="118.8235294117647" height="43.7956204379562" as="geometry" />
        </mxCell>
        <mxCell id="7xT1okyIv0pge_eyf053-41" value="网络" style="rounded=0;whiteSpace=wrap;html=1;labelBackgroundColor=none;fillColor=#A8DADC;strokeColor=#457B9D;fontColor=#1D3557;" parent="1" vertex="1">
          <mxGeometry x="200.0023529411765" y="-38.05452554744522" width="118.8235294117647" height="43.7956204379562" as="geometry" />
        </mxCell>
        <mxCell id="7xT1okyIv0pge_eyf053-42" value="网络" style="rounded=0;whiteSpace=wrap;html=1;labelBackgroundColor=none;fillColor=#A8DADC;strokeColor=#457B9D;fontColor=#1D3557;" parent="1" vertex="1">
          <mxGeometry x="340.00235294117647" y="-38.05452554744522" width="118.8235294117647" height="43.7956204379562" as="geometry" />
        </mxCell>
        <mxCell id="7xT1okyIv0pge_eyf053-43" value="网络" style="rounded=0;whiteSpace=wrap;html=1;labelBackgroundColor=none;fillColor=#A8DADC;strokeColor=#457B9D;fontColor=#1D3557;" parent="1" vertex="1">
          <mxGeometry x="480.00235294117647" y="-38.05452554744522" width="118.8235294117647" height="43.7956204379562" as="geometry" />
        </mxCell>
        <mxCell id="7xT1okyIv0pge_eyf053-44" value="网络" style="rounded=0;whiteSpace=wrap;html=1;labelBackgroundColor=none;fillColor=#A8DADC;strokeColor=#457B9D;fontColor=#1D3557;" parent="1" vertex="1">
          <mxGeometry x="620.0023529411765" y="-38.05452554744522" width="118.8235294117647" height="43.7956204379562" as="geometry" />
        </mxCell>
        <mxCell id="7xT1okyIv0pge_eyf053-45" value="网络" style="rounded=0;whiteSpace=wrap;html=1;labelBackgroundColor=none;fillColor=#A8DADC;strokeColor=#457B9D;fontColor=#1D3557;" parent="1" vertex="1">
          <mxGeometry x="760.0023529411765" y="-38.05452554744522" width="118.8235294117647" height="43.7956204379562" as="geometry" />
        </mxCell>
        <mxCell id="7xT1okyIv0pge_eyf053-46" value="网络" style="rounded=0;whiteSpace=wrap;html=1;labelBackgroundColor=none;fillColor=#A8DADC;strokeColor=#457B9D;fontColor=#1D3557;" parent="1" vertex="1">
          <mxGeometry x="900.0023529411765" y="-38.05452554744522" width="118.8235294117647" height="43.7956204379562" as="geometry" />
        </mxCell>
        <mxCell id="7xT1okyIv0pge_eyf053-47" value="5G网络" style="rounded=0;whiteSpace=wrap;html=1;labelBackgroundColor=none;fillColor=#A8DADC;strokeColor=#457B9D;fontColor=#1D3557;" parent="1" vertex="1">
          <mxGeometry x="310.00176470588235" y="109.09547445255475" width="118.8235294117647" height="43.7956204379562" as="geometry" />
        </mxCell>
        <mxCell id="7xT1okyIv0pge_eyf053-48" value="异构网络" style="rounded=0;whiteSpace=wrap;html=1;labelBackgroundColor=none;fillColor=#A8DADC;strokeColor=#457B9D;fontColor=#1D3557;" parent="1" vertex="1">
          <mxGeometry x="221.18" y="470" width="98.82" height="40" as="geometry" />
        </mxCell>
        <mxCell id="7xT1okyIv0pge_eyf053-49" value="5G网络" style="rounded=0;whiteSpace=wrap;html=1;labelBackgroundColor=none;fillColor=#A8DADC;strokeColor=#457B9D;fontColor=#1D3557;" parent="1" vertex="1">
          <mxGeometry x="450.00176470588235" y="109.10547445255474" width="118.8235294117647" height="43.7956204379562" as="geometry" />
        </mxCell>
        <mxCell id="7xT1okyIv0pge_eyf053-50" value="5G网络" style="rounded=0;whiteSpace=wrap;html=1;labelBackgroundColor=none;fillColor=#A8DADC;strokeColor=#457B9D;fontColor=#1D3557;" parent="1" vertex="1">
          <mxGeometry x="590.0017647058824" y="109.09547445255475" width="118.8235294117647" height="43.7956204379562" as="geometry" />
        </mxCell>
        <mxCell id="7xT1okyIv0pge_eyf053-51" value="5G网络" style="rounded=0;whiteSpace=wrap;html=1;labelBackgroundColor=none;fillColor=#A8DADC;strokeColor=#457B9D;fontColor=#1D3557;" parent="1" vertex="1">
          <mxGeometry x="730.0017647058824" y="109.09547445255475" width="118.8235294117647" height="43.7956204379562" as="geometry" />
        </mxCell>
        <mxCell id="7xT1okyIv0pge_eyf053-52" value="5G网络" style="rounded=0;whiteSpace=wrap;html=1;labelBackgroundColor=none;fillColor=#A8DADC;strokeColor=#457B9D;fontColor=#1D3557;" parent="1" vertex="1">
          <mxGeometry x="870.0017647058824" y="109.09547445255475" width="118.8235294117647" height="43.7956204379562" as="geometry" />
        </mxCell>
        <mxCell id="7xT1okyIv0pge_eyf053-53" value="实时接入" style="rounded=0;whiteSpace=wrap;html=1;labelBackgroundColor=none;fillColor=#A8DADC;strokeColor=#457B9D;fontColor=#1D3557;" parent="1" vertex="1">
          <mxGeometry x="221.18" y="530" width="98.82" height="40" as="geometry" />
        </mxCell>
        <mxCell id="7xT1okyIv0pge_eyf053-54" value="异构数据源" style="rounded=0;whiteSpace=wrap;html=1;labelBackgroundColor=none;fillColor=#A8DADC;strokeColor=#457B9D;fontColor=#1D3557;" parent="1" vertex="1">
          <mxGeometry x="354" y="470" width="96" height="40" as="geometry" />
        </mxCell>
        <mxCell id="7xT1okyIv0pge_eyf053-56" value="离线同步" style="rounded=0;whiteSpace=wrap;html=1;labelBackgroundColor=none;fillColor=#A8DADC;strokeColor=#457B9D;fontColor=#1D3557;" parent="1" vertex="1">
          <mxGeometry x="354" y="530" width="96" height="40" as="geometry" />
        </mxCell>
        <mxCell id="7xT1okyIv0pge_eyf053-57" value="数据汇集" style="text;strokeColor=none;align=center;fillColor=none;html=1;verticalAlign=middle;whiteSpace=wrap;rounded=0;labelBackgroundColor=none;fontStyle=1;fontColor=#1D3557;" parent="1" vertex="1">
          <mxGeometry x="306.0029411764706" y="430.00459854014593" width="89.11764705882354" height="32.846715328467155" as="geometry" />
        </mxCell>
        <mxCell id="7xT1okyIv0pge_eyf053-58" value="应用层" style="rounded=0;whiteSpace=wrap;html=1;labelBackgroundColor=none;fillColor=#A8DADC;strokeColor=#457B9D;fontColor=#1D3557;" parent="1" vertex="1">
          <mxGeometry x="-110" y="-48" width="120" height="70" as="geometry" />
        </mxCell>
        <mxCell id="7xT1okyIv0pge_eyf053-59" value="数据中台" style="rounded=0;whiteSpace=wrap;html=1;labelBackgroundColor=none;fillColor=#A8DADC;strokeColor=#457B9D;fontColor=#1D3557;" parent="1" vertex="1">
          <mxGeometry x="-110" y="100" width="120" height="490" as="geometry" />
        </mxCell>
        <mxCell id="7xT1okyIv0pge_eyf053-60" value="技术组件" style="rounded=0;whiteSpace=wrap;html=1;labelBackgroundColor=none;fillColor=#A8DADC;strokeColor=#457B9D;fontColor=#1D3557;" parent="1" vertex="1">
          <mxGeometry x="-110" y="610" width="120" height="150" as="geometry" />
        </mxCell>
        <mxCell id="7xT1okyIv0pge_eyf053-61" value="基础设施层" style="rounded=0;whiteSpace=wrap;html=1;labelBackgroundColor=none;fillColor=#A8DADC;strokeColor=#457B9D;fontColor=#1D3557;" parent="1" vertex="1">
          <mxGeometry x="-110" y="780" width="120" height="130" as="geometry" />
        </mxCell>
        <mxCell id="7xT1okyIv0pge_eyf053-62" value="数据开发" style="text;strokeColor=none;align=center;fillColor=none;html=1;verticalAlign=middle;whiteSpace=wrap;rounded=0;labelBackgroundColor=none;fontStyle=1;fontColor=#1D3557;" parent="1" vertex="1">
          <mxGeometry x="730.0029411764706" y="430.00459854014593" width="89.11764705882354" height="32.846715328467155" as="geometry" />
        </mxCell>
        <mxCell id="7xT1okyIv0pge_eyf053-63" value="异构网络" style="rounded=0;whiteSpace=wrap;html=1;labelBackgroundColor=none;fillColor=#A8DADC;strokeColor=#457B9D;fontColor=#1D3557;" parent="1" vertex="1">
          <mxGeometry x="540" y="470" width="98.82" height="40" as="geometry" />
        </mxCell>
        <mxCell id="7xT1okyIv0pge_eyf053-64" value="异构网络" style="rounded=0;whiteSpace=wrap;html=1;labelBackgroundColor=none;fillColor=#A8DADC;strokeColor=#457B9D;fontColor=#1D3557;" parent="1" vertex="1">
          <mxGeometry x="661.18" y="470" width="98.82" height="40" as="geometry" />
        </mxCell>
        <mxCell id="7xT1okyIv0pge_eyf053-65" value="异构网络" style="rounded=0;whiteSpace=wrap;html=1;labelBackgroundColor=none;fillColor=#A8DADC;strokeColor=#457B9D;fontColor=#1D3557;" parent="1" vertex="1">
          <mxGeometry x="780.01" y="470" width="98.82" height="40" as="geometry" />
        </mxCell>
        <mxCell id="7xT1okyIv0pge_eyf053-66" value="异构网络" style="rounded=0;whiteSpace=wrap;html=1;labelBackgroundColor=none;fillColor=#A8DADC;strokeColor=#457B9D;fontColor=#1D3557;" parent="1" vertex="1">
          <mxGeometry x="900" y="470" width="98.82" height="40" as="geometry" />
        </mxCell>
        <mxCell id="7xT1okyIv0pge_eyf053-67" value="数据资产" style="text;strokeColor=none;align=center;fillColor=none;html=1;verticalAlign=middle;whiteSpace=wrap;rounded=0;labelBackgroundColor=none;fontStyle=1;fontColor=#1D3557;" parent="1" vertex="1">
          <mxGeometry x="568.8229411764705" y="179.00459854014593" width="89.11764705882354" height="32.846715328467155" as="geometry" />
        </mxCell>
        <mxCell id="7xT1okyIv0pge_eyf053-3" value="" style="rounded=0;whiteSpace=wrap;html=1;labelBackgroundColor=none;dashed=1;fillColor=#A8DADC;strokeColor=#457B9D;fontColor=#1D3557;" parent="1" vertex="1">
          <mxGeometry x="40" y="696.4963503649635" width="1010.0000000000002" height="65.69343065693431" as="geometry" />
        </mxCell>
        <mxCell id="7xT1okyIv0pge_eyf053-4" value="数据源" style="text;strokeColor=none;align=center;fillColor=none;html=1;verticalAlign=middle;whiteSpace=wrap;rounded=0;labelBackgroundColor=none;fontStyle=1;fontColor=#1D3557;" parent="1" vertex="1">
          <mxGeometry x="54.85294117647059" y="714.0145985401459" width="89.11764705882354" height="32.846715328467155" as="geometry" />
        </mxCell>
        <mxCell id="7xT1okyIv0pge_eyf053-5" value="" style="rounded=0;whiteSpace=wrap;html=1;labelBackgroundColor=none;dashed=1;fillColor=#A8DADC;strokeColor=#457B9D;fontColor=#1D3557;" parent="1" vertex="1">
          <mxGeometry x="40" y="610" width="1010.0000000000002" height="65.69343065693431" as="geometry" />
        </mxCell>
        <mxCell id="7xT1okyIv0pge_eyf053-6" value="内部数据" style="rounded=0;whiteSpace=wrap;html=1;labelBackgroundColor=none;fillColor=#A8DADC;strokeColor=#457B9D;fontColor=#1D3557;" parent="1" vertex="1">
          <mxGeometry x="277.6470588235294" y="707.4452554744526" width="218.33823529411768" height="43.7956204379562" as="geometry" />
        </mxCell>
        <mxCell id="7xT1okyIv0pge_eyf053-7" value="外部数据" style="rounded=0;whiteSpace=wrap;html=1;labelBackgroundColor=none;fillColor=#A8DADC;strokeColor=#457B9D;fontColor=#1D3557;" parent="1" vertex="1">
          <mxGeometry x="604.4117647058824" y="707.4452554744526" width="218.33823529411768" height="43.7956204379562" as="geometry" />
        </mxCell>
        <mxCell id="7xT1okyIv0pge_eyf053-8" value="" style="rounded=0;whiteSpace=wrap;html=1;labelBackgroundColor=none;dashed=1;fillColor=#A8DADC;strokeColor=#457B9D;fontColor=#1D3557;" parent="1" vertex="1">
          <mxGeometry x="40" y="844.3065693430657" width="1010.0000000000002" height="65.69343065693431" as="geometry" />
        </mxCell>
        <mxCell id="7xT1okyIv0pge_eyf053-9" value="网络" style="rounded=0;whiteSpace=wrap;html=1;labelBackgroundColor=none;fillColor=#A8DADC;strokeColor=#457B9D;fontColor=#1D3557;" parent="1" vertex="1">
          <mxGeometry x="203.3823529411765" y="855.2554744525547" width="118.8235294117647" height="43.7956204379562" as="geometry" />
        </mxCell>
        <mxCell id="7xT1okyIv0pge_eyf053-11" value="5G网络" style="rounded=0;whiteSpace=wrap;html=1;labelBackgroundColor=none;fillColor=#A8DADC;strokeColor=#457B9D;fontColor=#1D3557;" parent="1" vertex="1">
          <mxGeometry x="377.1617647058824" y="855.2554744525547" width="118.8235294117647" height="43.7956204379562" as="geometry" />
        </mxCell>
        <mxCell id="7xT1okyIv0pge_eyf053-12" value="云平台" style="rounded=0;whiteSpace=wrap;html=1;labelBackgroundColor=none;fillColor=#A8DADC;strokeColor=#457B9D;fontColor=#1D3557;" parent="1" vertex="1">
          <mxGeometry x="545.0000000000001" y="855.2554744525547" width="118.8235294117647" height="43.7956204379562" as="geometry" />
        </mxCell>
        <mxCell id="7xT1okyIv0pge_eyf053-13" value="本地机房" style="rounded=0;whiteSpace=wrap;html=1;labelBackgroundColor=none;fillColor=#A8DADC;strokeColor=#457B9D;fontColor=#1D3557;" parent="1" vertex="1">
          <mxGeometry x="723.2352941176471" y="855.2554744525547" width="118.8235294117647" height="43.7956204379562" as="geometry" />
        </mxCell>
        <mxCell id="7xT1okyIv0pge_eyf053-14" value="基础设施" style="text;strokeColor=none;align=center;fillColor=none;html=1;verticalAlign=middle;whiteSpace=wrap;rounded=0;labelBackgroundColor=none;fontStyle=1;fontColor=#1D3557;" parent="1" vertex="1">
          <mxGeometry x="54.85294117647059" y="860.7299270072992" width="89.11764705882354" height="32.846715328467155" as="geometry" />
        </mxCell>
        <mxCell id="7xT1okyIv0pge_eyf053-15" value="Hadoop" style="rounded=0;whiteSpace=wrap;html=1;labelBackgroundColor=none;fillColor=#A8DADC;strokeColor=#457B9D;fontColor=#1D3557;" parent="1" vertex="1">
          <mxGeometry x="74.16176470588235" y="620.948905109489" width="118.8235294117647" height="43.7956204379562" as="geometry" />
        </mxCell>
        <mxCell id="7xT1okyIv0pge_eyf053-16" value="Kylin" style="rounded=0;whiteSpace=wrap;html=1;labelBackgroundColor=none;fillColor=#A8DADC;strokeColor=#457B9D;fontColor=#1D3557;" parent="1" vertex="1">
          <mxGeometry x="233.08823529411765" y="620.948905109489" width="118.8235294117647" height="43.7956204379562" as="geometry" />
        </mxCell>
        <mxCell id="7xT1okyIv0pge_eyf053-17" value="Flink" style="rounded=0;whiteSpace=wrap;html=1;labelBackgroundColor=none;fillColor=#A8DADC;strokeColor=#457B9D;fontColor=#1D3557;" parent="1" vertex="1">
          <mxGeometry x="396.47058823529414" y="620.948905109489" width="118.8235294117647" height="43.7956204379562" as="geometry" />
        </mxCell>
        <mxCell id="7xT1okyIv0pge_eyf053-18" value="Spark" style="rounded=0;whiteSpace=wrap;html=1;labelBackgroundColor=none;fillColor=#A8DADC;strokeColor=#457B9D;fontColor=#1D3557;" parent="1" vertex="1">
          <mxGeometry x="559.8529411764706" y="620.948905109489" width="118.8235294117647" height="43.7956204379562" as="geometry" />
        </mxCell>
        <mxCell id="7xT1okyIv0pge_eyf053-19" value="Greenplum" style="rounded=0;whiteSpace=wrap;html=1;labelBackgroundColor=none;fillColor=#A8DADC;strokeColor=#457B9D;fontColor=#1D3557;" parent="1" vertex="1">
          <mxGeometry x="723.2352941176471" y="620.948905109489" width="118.8235294117647" height="43.7956204379562" as="geometry" />
        </mxCell>
        <mxCell id="7xT1okyIv0pge_eyf053-20" value="TensorFlow" style="rounded=0;whiteSpace=wrap;html=1;labelBackgroundColor=none;fillColor=#A8DADC;strokeColor=#457B9D;fontColor=#1D3557;" parent="1" vertex="1">
          <mxGeometry x="886.6176470588235" y="620.948905109489" width="118.8235294117647" height="43.7956204379562" as="geometry" />
        </mxCell>
        <mxCell id="7xT1okyIv0pge_eyf053-21" value="" style="shape=flexArrow;endArrow=classic;startArrow=classic;html=1;rounded=0;startWidth=8;startSize=6;endWidth=8;endSize=6;width=6;labelBackgroundColor=none;fontColor=default;strokeColor=#457B9D;" parent="1" edge="1">
          <mxGeometry width="100" height="100" relative="1" as="geometry">
            <mxPoint x="247.9411764705882" y="832.2627737226278" as="sourcePoint" />
            <mxPoint x="247.9411764705882" y="774.2335766423357" as="targetPoint" />
            <Array as="points">
              <mxPoint x="247.9411764705882" y="799.4160583941606" />
            </Array>
          </mxGeometry>
        </mxCell>
        <mxCell id="7xT1okyIv0pge_eyf053-22" value="" style="shape=flexArrow;endArrow=classic;startArrow=classic;html=1;rounded=0;startWidth=8;startSize=6;endWidth=8;endSize=6;width=6;labelBackgroundColor=none;fontColor=default;strokeColor=#457B9D;" parent="1" edge="1">
          <mxGeometry width="100" height="100" relative="1" as="geometry">
            <mxPoint x="544.2573529411766" y="832.2627737226278" as="sourcePoint" />
            <mxPoint x="544.2573529411766" y="774.2335766423357" as="targetPoint" />
            <Array as="points">
              <mxPoint x="544.2573529411766" y="799.4160583941606" />
            </Array>
          </mxGeometry>
        </mxCell>
        <mxCell id="7xT1okyIv0pge_eyf053-23" value="" style="shape=flexArrow;endArrow=classic;startArrow=classic;html=1;rounded=0;startWidth=8;startSize=6;endWidth=8;endSize=6;width=6;labelBackgroundColor=none;fontColor=default;strokeColor=#457B9D;" parent="1" edge="1">
          <mxGeometry width="100" height="100" relative="1" as="geometry">
            <mxPoint x="797.5" y="832.2627737226278" as="sourcePoint" />
            <mxPoint x="797.5" y="774.2335766423357" as="targetPoint" />
            <Array as="points">
              <mxPoint x="797.5" y="799.4160583941606" />
            </Array>
          </mxGeometry>
        </mxCell>
        <mxCell id="7xT1okyIv0pge_eyf053-2" value="" style="rounded=0;whiteSpace=wrap;html=1;labelBackgroundColor=none;dashed=1;fillColor=#A8DADC;strokeColor=#457B9D;fontColor=#1D3557;" parent="1" vertex="1">
          <mxGeometry x="117" y="100" width="60" height="487" as="geometry" />
        </mxCell>
        <mxCell id="7xT1okyIv0pge_eyf053-24" value="数&lt;br&gt;据&lt;br&gt;安&lt;br&gt;全&lt;br&gt;管&lt;br&gt;理" style="text;strokeColor=none;align=center;fillColor=none;html=1;verticalAlign=middle;whiteSpace=wrap;rounded=0;labelBackgroundColor=none;fontColor=#1D3557;" parent="1" vertex="1">
          <mxGeometry x="129.5" y="285.8333333333333" width="35" height="139" as="geometry" />
        </mxCell>
        <mxCell id="7xT1okyIv0pge_eyf053-27" value="" style="rounded=0;whiteSpace=wrap;html=1;labelBackgroundColor=none;dashed=1;fillColor=#A8DADC;strokeColor=#457B9D;fontColor=#1D3557;" parent="1" vertex="1">
          <mxGeometry x="40" y="100" width="60" height="487" as="geometry" />
        </mxCell>
        <mxCell id="7xT1okyIv0pge_eyf053-28" value="数&lt;br&gt;据&lt;br&gt;运&lt;br&gt;营&lt;br&gt;体&lt;br&gt;系" style="text;strokeColor=none;align=center;fillColor=none;html=1;verticalAlign=middle;whiteSpace=wrap;rounded=0;labelBackgroundColor=none;fontColor=#1D3557;" parent="1" vertex="1">
          <mxGeometry x="52.5" y="285.8333333333333" width="35" height="139" as="geometry" />
        </mxCell>
        <mxCell id="7xT1okyIv0pge_eyf053-69" value="元数据" style="rounded=0;whiteSpace=wrap;html=1;labelBackgroundColor=none;fillColor=#A8DADC;strokeColor=#457B9D;fontColor=#1D3557;" parent="1" vertex="1">
          <mxGeometry x="233.09176470588235" y="217.83547445255476" width="118.8235294117647" height="43.7956204379562" as="geometry" />
        </mxCell>
        <mxCell id="7xT1okyIv0pge_eyf053-70" value="数据标准" style="rounded=0;whiteSpace=wrap;html=1;labelBackgroundColor=none;fillColor=#A8DADC;strokeColor=#457B9D;fontColor=#1D3557;" parent="1" vertex="1">
          <mxGeometry x="377.1617647058824" y="217.83547445255476" width="118.8235294117647" height="43.7956204379562" as="geometry" />
        </mxCell>
        <mxCell id="7xT1okyIv0pge_eyf053-71" value="数据质量" style="rounded=0;whiteSpace=wrap;html=1;labelBackgroundColor=none;fillColor=#A8DADC;strokeColor=#457B9D;fontColor=#1D3557;" parent="1" vertex="1">
          <mxGeometry x="530.0017647058824" y="217.83547445255476" width="118.8235294117647" height="43.7956204379562" as="geometry" />
        </mxCell>
        <mxCell id="7xT1okyIv0pge_eyf053-72" value="数据血缘" style="rounded=0;whiteSpace=wrap;html=1;labelBackgroundColor=none;fillColor=#A8DADC;strokeColor=#457B9D;fontColor=#1D3557;" parent="1" vertex="1">
          <mxGeometry x="663.8217647058823" y="217.83547445255476" width="118.8235294117647" height="43.7956204379562" as="geometry" />
        </mxCell>
        <mxCell id="7xT1okyIv0pge_eyf053-73" value="数据生命周期" style="rounded=0;whiteSpace=wrap;html=1;labelBackgroundColor=none;fillColor=#A8DADC;strokeColor=#457B9D;fontColor=#1D3557;" parent="1" vertex="1">
          <mxGeometry x="810.0017647058824" y="217.83547445255476" width="118.8235294117647" height="43.7956204379562" as="geometry" />
        </mxCell>
        <mxCell id="7xT1okyIv0pge_eyf053-74" value="" style="rounded=0;whiteSpace=wrap;html=1;labelBackgroundColor=none;dashed=1;fillColor=#A8DADC;strokeColor=#457B9D;fontColor=#1D3557;" parent="1" vertex="1">
          <mxGeometry x="201" y="305" width="850" height="103" as="geometry" />
        </mxCell>
        <mxCell id="7xT1okyIv0pge_eyf053-75" value="数据资产" style="text;strokeColor=none;align=center;fillColor=none;html=1;verticalAlign=middle;whiteSpace=wrap;rounded=0;labelBackgroundColor=none;fontStyle=1;fontColor=#1D3557;" parent="1" vertex="1">
          <mxGeometry x="569.8229411764705" y="305.00459854014593" width="89.11764705882354" height="32.846715328467155" as="geometry" />
        </mxCell>
        <mxCell id="7xT1okyIv0pge_eyf053-76" value="元数据" style="rounded=0;whiteSpace=wrap;html=1;labelBackgroundColor=none;fillColor=#A8DADC;strokeColor=#457B9D;fontColor=#1D3557;" parent="1" vertex="1">
          <mxGeometry x="234.09176470588235" y="343.83547445255476" width="118.8235294117647" height="43.7956204379562" as="geometry" />
        </mxCell>
        <mxCell id="7xT1okyIv0pge_eyf053-77" value="数据标准" style="rounded=0;whiteSpace=wrap;html=1;labelBackgroundColor=none;fillColor=#A8DADC;strokeColor=#457B9D;fontColor=#1D3557;" parent="1" vertex="1">
          <mxGeometry x="378.1617647058824" y="343.83547445255476" width="118.8235294117647" height="43.7956204379562" as="geometry" />
        </mxCell>
        <mxCell id="7xT1okyIv0pge_eyf053-78" value="数据质量" style="rounded=0;whiteSpace=wrap;html=1;labelBackgroundColor=none;fillColor=#A8DADC;strokeColor=#457B9D;fontColor=#1D3557;" parent="1" vertex="1">
          <mxGeometry x="531.0017647058824" y="343.83547445255476" width="118.8235294117647" height="43.7956204379562" as="geometry" />
        </mxCell>
        <mxCell id="7xT1okyIv0pge_eyf053-79" value="数据血缘" style="rounded=0;whiteSpace=wrap;html=1;labelBackgroundColor=none;fillColor=#A8DADC;strokeColor=#457B9D;fontColor=#1D3557;" parent="1" vertex="1">
          <mxGeometry x="664.8217647058823" y="343.83547445255476" width="118.8235294117647" height="43.7956204379562" as="geometry" />
        </mxCell>
        <mxCell id="7xT1okyIv0pge_eyf053-80" value="数据生命周期" style="rounded=0;whiteSpace=wrap;html=1;labelBackgroundColor=none;fillColor=#A8DADC;strokeColor=#457B9D;fontColor=#1D3557;" parent="1" vertex="1">
          <mxGeometry x="811.0017647058824" y="343.83547445255476" width="118.8235294117647" height="43.7956204379562" as="geometry" />
        </mxCell>
      </root>
    </mxGraphModel>
  </diagram>
  <diagram id="5oO0zdge0b_lwBmciEEE" name="数据中台技术架构图-2">
    <mxGraphModel dx="2074" dy="1027" grid="1" gridSize="10" guides="1" tooltips="1" connect="1" arrows="1" fold="1" page="1" pageScale="1" pageWidth="827" pageHeight="1169" math="0" shadow="0">
      <root>
        <mxCell id="0" />
        <mxCell id="1" parent="0" />
        <mxCell id="FahSM20ym5paNgnE85Up-1" value="" style="rounded=0;whiteSpace=wrap;html=1;labelBackgroundColor=none;dashed=1;strokeWidth=1;perimeterSpacing=1;container=0;fillColor=#e1d5e7;strokeColor=#9673a6;" parent="1" vertex="1">
          <mxGeometry x="41" y="214" width="660" height="130" as="geometry" />
        </mxCell>
        <mxCell id="FahSM20ym5paNgnE85Up-64" value="" style="rounded=0;whiteSpace=wrap;html=1;labelBackgroundColor=none;dashed=1;fillColor=#ffe6cc;strokeColor=#d79b00;" parent="1" vertex="1">
          <mxGeometry x="1074.15" y="40" width="156" height="570" as="geometry" />
        </mxCell>
        <mxCell id="FahSM20ym5paNgnE85Up-2" value="" style="group;rounded=0;dashed=1;container=0;labelBackgroundColor=none;" parent="1" vertex="1" connectable="0">
          <mxGeometry x="40" y="170" width="60" height="417" as="geometry" />
        </mxCell>
        <mxCell id="FahSM20ym5paNgnE85Up-5" value="" style="rounded=0;whiteSpace=wrap;html=1;labelBackgroundColor=none;dashed=1;fillColor=#dae8fc;strokeColor=#6c8ebf;" parent="1" vertex="1">
          <mxGeometry x="41.15" y="40" width="1009" height="60" as="geometry" />
        </mxCell>
        <mxCell id="FahSM20ym5paNgnE85Up-6" value="数据应用" style="text;align=center;html=1;verticalAlign=middle;whiteSpace=wrap;rounded=0;labelBackgroundColor=none;fontStyle=1;fontSize=14;" parent="1" vertex="1">
          <mxGeometry x="40.152941176470584" y="53.57459854014587" width="89.11764705882354" height="32.846715328467155" as="geometry" />
        </mxCell>
        <mxCell id="FahSM20ym5paNgnE85Up-12" value="" style="rounded=0;whiteSpace=wrap;html=1;labelBackgroundColor=none;dashed=1;fillColor=#fff2cc;strokeColor=#d6b656;" parent="1" vertex="1">
          <mxGeometry x="40.15" y="124.67635036496353" width="1010.0000000000002" height="65.69343065693431" as="geometry" />
        </mxCell>
        <mxCell id="FahSM20ym5paNgnE85Up-14" value="Kylin&lt;br&gt;多维索引/预计算" style="rounded=0;whiteSpace=wrap;html=1;labelBackgroundColor=none;" parent="1" vertex="1">
          <mxGeometry x="428.32" y="230.48000000000002" width="111.83" height="42" as="geometry" />
        </mxCell>
        <mxCell id="FahSM20ym5paNgnE85Up-15" value="数据接口 Restful API" style="rounded=0;whiteSpace=wrap;html=1;labelBackgroundColor=none;" parent="1" vertex="1">
          <mxGeometry x="149.72" y="135.63" width="420.43" height="43.8" as="geometry" />
        </mxCell>
        <mxCell id="FahSM20ym5paNgnE85Up-16" value="流式数据 Rabbit MQ" style="rounded=0;whiteSpace=wrap;html=1;labelBackgroundColor=none;strokeColor=default;" parent="1" vertex="1">
          <mxGeometry x="630.15" y="135.62" width="385.83" height="43.8" as="geometry" />
        </mxCell>
        <mxCell id="FahSM20ym5paNgnE85Up-20" value="可视化分析" style="rounded=0;whiteSpace=wrap;html=1;labelBackgroundColor=none;" parent="1" vertex="1">
          <mxGeometry x="151.15176470588236" y="48.095474452554754" width="118.8235294117647" height="43.7956204379562" as="geometry" />
        </mxCell>
        <mxCell id="FahSM20ym5paNgnE85Up-22" value="标签系统" style="rounded=0;whiteSpace=wrap;html=1;labelBackgroundColor=none;" parent="1" vertex="1">
          <mxGeometry x="309.4917647058823" y="48.105474452554745" width="118.8235294117647" height="43.7956204379562" as="geometry" />
        </mxCell>
        <mxCell id="FahSM20ym5paNgnE85Up-23" value="自助查询" style="rounded=0;whiteSpace=wrap;html=1;labelBackgroundColor=none;" parent="1" vertex="1">
          <mxGeometry x="460.15176470588233" y="48.115474452554736" width="118.8235294117647" height="43.7956204379562" as="geometry" />
        </mxCell>
        <mxCell id="FahSM20ym5paNgnE85Up-24" value="数据接口" style="rounded=0;whiteSpace=wrap;html=1;labelBackgroundColor=none;" parent="1" vertex="1">
          <mxGeometry x="911.3217647058823" y="48.095474452554754" width="118.8235294117647" height="43.7956204379562" as="geometry" />
        </mxCell>
        <mxCell id="FahSM20ym5paNgnE85Up-25" value="旅客画像" style="rounded=0;whiteSpace=wrap;html=1;labelBackgroundColor=none;" parent="1" vertex="1">
          <mxGeometry x="620.1517647058823" y="48.095474452554754" width="118.8235294117647" height="43.7956204379562" as="geometry" />
        </mxCell>
        <mxCell id="FahSM20ym5paNgnE85Up-40" value="" style="rounded=0;whiteSpace=wrap;html=1;labelBackgroundColor=none;dashed=1;fillColor=#f8cecc;strokeColor=#b85450;" parent="1" vertex="1">
          <mxGeometry x="40.15" y="454.4963503649635" width="1010.0000000000002" height="65.69343065693431" as="geometry" />
        </mxCell>
        <mxCell id="FahSM20ym5paNgnE85Up-41" value="数据采集" style="text;align=center;html=1;verticalAlign=middle;whiteSpace=wrap;rounded=0;labelBackgroundColor=none;fontStyle=1;fontSize=14;" parent="1" vertex="1">
          <mxGeometry x="40.002941176470586" y="472.0145985401459" width="89.11764705882354" height="32.846715328467155" as="geometry" />
        </mxCell>
        <mxCell id="FahSM20ym5paNgnE85Up-42" value="" style="rounded=0;whiteSpace=wrap;html=1;labelBackgroundColor=none;dashed=1;fillColor=#d5e8d4;strokeColor=#82b366;" parent="1" vertex="1">
          <mxGeometry x="40.15" y="368" width="1010.0000000000002" height="65.69343065693431" as="geometry" />
        </mxCell>
        <mxCell id="FahSM20ym5paNgnE85Up-43" value="DataX&lt;br&gt;数据传输" style="rounded=0;whiteSpace=wrap;html=1;labelBackgroundColor=none;" parent="1" vertex="1">
          <mxGeometry x="149.72" y="465.44000000000005" width="140" height="42.56" as="geometry" />
        </mxCell>
        <mxCell id="FahSM20ym5paNgnE85Up-44" value="Restful API" style="rounded=0;whiteSpace=wrap;html=1;labelBackgroundColor=none;" parent="1" vertex="1">
          <mxGeometry x="723.39" y="467.15999999999997" width="128.83" height="42.56" as="geometry" />
        </mxCell>
        <mxCell id="FahSM20ym5paNgnE85Up-45" value="" style="rounded=0;whiteSpace=wrap;html=1;labelBackgroundColor=none;dashed=1;fillColor=#ffe6cc;strokeColor=#d79b00;" parent="1" vertex="1">
          <mxGeometry x="40.15" y="542.3065693430657" width="1010.0000000000002" height="65.69343065693431" as="geometry" />
        </mxCell>
        <mxCell id="FahSM20ym5paNgnE85Up-46" value="网络" style="rounded=0;whiteSpace=wrap;html=1;labelBackgroundColor=none;" parent="1" vertex="1">
          <mxGeometry x="151.15" y="553.26" width="140.43" height="43.8" as="geometry" />
        </mxCell>
        <mxCell id="FahSM20ym5paNgnE85Up-47" value="移动网络" style="rounded=0;whiteSpace=wrap;html=1;labelBackgroundColor=none;" parent="1" vertex="1">
          <mxGeometry x="351.03999999999996" y="554.73" width="139.41" height="43.8" as="geometry" />
        </mxCell>
        <mxCell id="FahSM20ym5paNgnE85Up-48" value="云平台" style="rounded=0;whiteSpace=wrap;html=1;labelBackgroundColor=none;" parent="1" vertex="1">
          <mxGeometry x="540.15" y="553.26" width="140" height="43.8" as="geometry" />
        </mxCell>
        <mxCell id="FahSM20ym5paNgnE85Up-49" value="本地机房" style="rounded=0;whiteSpace=wrap;html=1;labelBackgroundColor=none;" parent="1" vertex="1">
          <mxGeometry x="723.39" y="553.73" width="126.76" height="43.8" as="geometry" />
        </mxCell>
        <mxCell id="FahSM20ym5paNgnE85Up-50" value="基础设施" style="text;align=center;html=1;verticalAlign=middle;whiteSpace=wrap;rounded=0;labelBackgroundColor=none;fontStyle=1;fontSize=14;" parent="1" vertex="1">
          <mxGeometry x="40.002941176470586" y="558.7299270072992" width="89.11764705882354" height="32.846715328467155" as="geometry" />
        </mxCell>
        <mxCell id="FahSM20ym5paNgnE85Up-81" value="运维监控" style="text;align=center;html=1;verticalAlign=middle;whiteSpace=wrap;rounded=0;labelBackgroundColor=none;fontStyle=1;fontSize=14;" parent="1" vertex="1">
          <mxGeometry x="1108.3829411764705" y="385.1545985401459" width="89.11764705882354" height="32.846715328467155" as="geometry" />
        </mxCell>
        <mxCell id="FahSM20ym5paNgnE85Up-82" value="Zabbix" style="rounded=0;whiteSpace=wrap;html=1;labelBackgroundColor=none;" parent="1" vertex="1">
          <mxGeometry x="1092.74" y="422.01" width="117.41" height="50" as="geometry" />
        </mxCell>
        <mxCell id="FahSM20ym5paNgnE85Up-83" value="Grafina" style="rounded=0;whiteSpace=wrap;html=1;labelBackgroundColor=none;" parent="1" vertex="1">
          <mxGeometry x="1092.74" y="555.73" width="117.41" height="43.8" as="geometry" />
        </mxCell>
        <mxCell id="FahSM20ym5paNgnE85Up-84" value="RabbitMQ" style="rounded=0;whiteSpace=wrap;html=1;labelBackgroundColor=none;" parent="1" vertex="1">
          <mxGeometry x="895.3299999999999" y="467.1600000000001" width="122.82" height="42.56" as="geometry" />
        </mxCell>
        <mxCell id="FahSM20ym5paNgnE85Up-85" value="HDFS&lt;br&gt;分布式文件系统" style="rounded=0;whiteSpace=wrap;html=1;labelBackgroundColor=none;" parent="1" vertex="1">
          <mxGeometry x="149.72" y="381.32000000000005" width="250.43" height="42" as="geometry" />
        </mxCell>
        <mxCell id="FahSM20ym5paNgnE85Up-86" value="数据存储" style="text;align=center;html=1;verticalAlign=middle;whiteSpace=wrap;rounded=0;labelBackgroundColor=none;fontStyle=1;fontSize=14;" parent="1" vertex="1">
          <mxGeometry x="41.00294117647058" y="384.4245985401459" width="89.11764705882354" height="32.846715328467155" as="geometry" />
        </mxCell>
        <mxCell id="FahSM20ym5paNgnE85Up-109" value="数据服务" style="text;align=center;html=1;verticalAlign=middle;whiteSpace=wrap;rounded=0;labelBackgroundColor=none;fontStyle=1;fontSize=14;" parent="1" vertex="1">
          <mxGeometry x="41.152941176470584" y="141.10459854014584" width="89.11764705882354" height="32.846715328467155" as="geometry" />
        </mxCell>
        <mxCell id="FahSM20ym5paNgnE85Up-67" value="数据质量&lt;span style=&quot;background-color: rgb(251, 251, 251);&quot;&gt;&lt;br&gt;&lt;/span&gt;&lt;div style=&quot;text-align: center;&quot;&gt;&lt;span style=&quot;background-color: rgb(255, 255, 255); font-family: &amp;quot;pingfang SC&amp;quot;, &amp;quot;helvetica neue&amp;quot;, arial, &amp;quot;hiragino sans gb&amp;quot;, &amp;quot;microsoft yahei ui&amp;quot;, &amp;quot;microsoft yahei&amp;quot;, simsun, sans-serif; text-align: start;&quot;&gt;Griffin&lt;/span&gt;&lt;/div&gt;" style="rounded=0;whiteSpace=wrap;html=1;labelBackgroundColor=none;" parent="1" vertex="1">
          <mxGeometry x="1098.24" y="91.91000000000003" width="111.91" height="78.09" as="geometry" />
        </mxCell>
        <mxCell id="FahSM20ym5paNgnE85Up-68" value="数据地图&lt;br&gt;Atlas" style="rounded=0;whiteSpace=wrap;html=1;labelBackgroundColor=none;" parent="1" vertex="1">
          <mxGeometry x="1095.74" y="187" width="114.41" height="80.95" as="geometry" />
        </mxCell>
        <mxCell id="FahSM20ym5paNgnE85Up-77" value="数据资产管理" style="text;align=center;html=1;verticalAlign=middle;whiteSpace=wrap;rounded=0;labelBackgroundColor=none;fontStyle=1;fontSize=14;" parent="1" vertex="1">
          <mxGeometry x="1100.15" y="48.10000000000002" width="102.06" height="32.85" as="geometry" />
        </mxCell>
        <mxCell id="FahSM20ym5paNgnE85Up-80" value="数据权限&lt;br&gt;Ranger" style="rounded=0;whiteSpace=wrap;html=1;labelBackgroundColor=none;" parent="1" vertex="1">
          <mxGeometry x="1096.5100000000002" y="288" width="115.37" height="80" as="geometry" />
        </mxCell>
        <mxCell id="FahSM20ym5paNgnE85Up-111" value="Prometheus" style="rounded=0;whiteSpace=wrap;html=1;labelBackgroundColor=none;" parent="1" vertex="1">
          <mxGeometry x="1093.47" y="490.30999999999995" width="117.41" height="50" as="geometry" />
        </mxCell>
        <mxCell id="FahSM20ym5paNgnE85Up-115" value="" style="group;labelBackgroundColor=none;fillColor=#f8cecc;strokeColor=#b85450;container=0;" parent="1" vertex="1" connectable="0">
          <mxGeometry x="715.98" y="214" width="160" height="130" as="geometry" />
        </mxCell>
        <mxCell id="FahSM20ym5paNgnE85Up-92" value="Ray&lt;br&gt;推荐平台" style="rounded=0;whiteSpace=wrap;html=1;labelBackgroundColor=none;container=0;" parent="1" vertex="1">
          <mxGeometry x="571.15" y="230.4727710843373" width="107.09" height="42" as="geometry" />
        </mxCell>
        <mxCell id="FahSM20ym5paNgnE85Up-35" value="Flink&lt;br&gt;流式计算" style="rounded=0;whiteSpace=wrap;html=1;labelBackgroundColor=none;container=0;" parent="1" vertex="1">
          <mxGeometry x="297.80999999999995" y="230.47710843373505" width="108.29" height="42" as="geometry" />
        </mxCell>
        <mxCell id="FahSM20ym5paNgnE85Up-21" value="Hive&lt;br&gt;数据仓库" style="rounded=0;whiteSpace=wrap;html=1;labelBackgroundColor=none;container=0;" parent="1" vertex="1">
          <mxGeometry x="151.15" y="230.00435294117653" width="109.85" height="42" as="geometry" />
        </mxCell>
        <mxCell id="FahSM20ym5paNgnE85Up-26" value="Spark&lt;br&gt;快速分析查询" style="rounded=0;whiteSpace=wrap;html=1;labelBackgroundColor=none;container=0;" parent="1" vertex="1">
          <mxGeometry x="149.72" y="288.9222352941175" width="111.28" height="42" as="geometry" />
        </mxCell>
        <mxCell id="FahSM20ym5paNgnE85Up-96" value="数据计算" style="text;align=center;html=1;verticalAlign=middle;whiteSpace=wrap;rounded=0;labelBackgroundColor=none;fontStyle=1;container=0;fontSize=14;" parent="1" vertex="1">
          <mxGeometry x="40.15" y="263.44000000000005" width="90" height="29.56" as="geometry" />
        </mxCell>
        <mxCell id="FahSM20ym5paNgnE85Up-112" value="人脸识别" style="rounded=0;whiteSpace=wrap;html=1;labelBackgroundColor=none;container=0;" parent="1" vertex="1">
          <mxGeometry x="571.15" y="288.5693975903615" width="107.09" height="42" as="geometry" />
        </mxCell>
        <mxCell id="FahSM20ym5paNgnE85Up-113" value="Tez&lt;br&gt;计算框架" style="rounded=0;whiteSpace=wrap;html=1;labelBackgroundColor=none;container=0;" parent="1" vertex="1">
          <mxGeometry x="296.41999999999996" y="290.00289156626513" width="108.29" height="42" as="geometry" />
        </mxCell>
        <mxCell id="FahSM20ym5paNgnE85Up-117" value="Sqoop&lt;br&gt;数据导入" style="rounded=0;whiteSpace=wrap;html=1;labelBackgroundColor=none;" parent="1" vertex="1">
          <mxGeometry x="350.74" y="465.44000000000005" width="140" height="42.56" as="geometry" />
        </mxCell>
        <mxCell id="FahSM20ym5paNgnE85Up-118" value="Flume&lt;br&gt;日志采集" style="rounded=0;whiteSpace=wrap;html=1;labelBackgroundColor=none;" parent="1" vertex="1">
          <mxGeometry x="540.15" y="467.1600000000001" width="140" height="42.56" as="geometry" />
        </mxCell>
        <mxCell id="FahSM20ym5paNgnE85Up-119" value="Trino&lt;br&gt;分布式查询引擎" style="rounded=0;whiteSpace=wrap;html=1;labelBackgroundColor=none;" parent="1" vertex="1">
          <mxGeometry x="428.32" y="288.57000000000005" width="111.83" height="42" as="geometry" />
        </mxCell>
        <mxCell id="FahSM20ym5paNgnE85Up-120" value="推荐系统" style="rounded=0;whiteSpace=wrap;html=1;labelBackgroundColor=none;" parent="1" vertex="1">
          <mxGeometry x="772.3223529411764" y="48.115474452554736" width="118.8235294117647" height="43.7956204379562" as="geometry" />
        </mxCell>
        <mxCell id="FahSM20ym5paNgnE85Up-121" value="HBase&lt;br&gt;非关系型数据库" style="rounded=0;whiteSpace=wrap;html=1;labelBackgroundColor=none;" parent="1" vertex="1">
          <mxGeometry x="470.15" y="380.85" width="240" height="42" as="geometry" />
        </mxCell>
        <mxCell id="FahSM20ym5paNgnE85Up-122" value="MySQL&lt;br&gt;关系型数据库" style="rounded=0;whiteSpace=wrap;html=1;labelBackgroundColor=none;" parent="1" vertex="1">
          <mxGeometry x="780.15" y="381.32000000000005" width="230" height="42" as="geometry" />
        </mxCell>
        <mxCell id="-vOSqX19OpU3c5eJ-dps-1" value="" style="group;labelBackgroundColor=none;fillColor=#fff2cc;strokeColor=#d6b656;container=0;" vertex="1" connectable="0" parent="1">
          <mxGeometry x="893.33" y="213.22000000000003" width="159" height="130" as="geometry" />
        </mxCell>
        <mxCell id="FahSM20ym5paNgnE85Up-99" value="" style="rounded=0;whiteSpace=wrap;html=1;labelBackgroundColor=none;dashed=1;fillColor=#e1d5e7;strokeColor=#9673a6;" parent="1" vertex="1">
          <mxGeometry x="715.98" y="214" width="160" height="130" as="geometry" />
        </mxCell>
        <mxCell id="FahSM20ym5paNgnE85Up-100" value="资源管理" style="text;align=center;html=1;verticalAlign=middle;whiteSpace=wrap;rounded=0;labelBackgroundColor=none;fontStyle=1;fontSize=14;" parent="1" vertex="1">
          <mxGeometry x="756.3963194968554" y="223.93716153127917" width="78.91952955974843" height="25.457983193277308" as="geometry" />
        </mxCell>
        <mxCell id="FahSM20ym5paNgnE85Up-101" value="Yarn" style="rounded=0;whiteSpace=wrap;html=1;labelBackgroundColor=none;" parent="1" vertex="1">
          <mxGeometry x="734.96" y="261.98" width="112.22" height="42.02" as="geometry" />
        </mxCell>
        <mxCell id="FahSM20ym5paNgnE85Up-103" value="" style="rounded=0;whiteSpace=wrap;html=1;labelBackgroundColor=none;dashed=1;fillColor=#e1d5e7;strokeColor=#9673a6;" parent="1" vertex="1">
          <mxGeometry x="893.33" y="213.22000000000003" width="159" height="130" as="geometry" />
        </mxCell>
        <mxCell id="FahSM20ym5paNgnE85Up-104" value="任务管理" style="text;align=center;html=1;verticalAlign=middle;whiteSpace=wrap;rounded=0;labelBackgroundColor=none;fontStyle=1;fontSize=14;" parent="1" vertex="1">
          <mxGeometry x="928.2729411764705" y="218.4809835766423" width="89.11764705882354" height="32.02554744525548" as="geometry" />
        </mxCell>
        <mxCell id="FahSM20ym5paNgnE85Up-105" value="Dolphin" style="rounded=0;whiteSpace=wrap;html=1;labelBackgroundColor=none;" parent="1" vertex="1">
          <mxGeometry x="913.4217647058823" y="256.872837591241" width="118.8235294117647" height="42.700729927007295" as="geometry" />
        </mxCell>
      </root>
    </mxGraphModel>
  </diagram>
  <diagram id="JWkTIdSRsDsGcexqQB3X" name="安全保障">
    <mxGraphModel dx="2074" dy="1027" grid="1" gridSize="10" guides="1" tooltips="1" connect="1" arrows="1" fold="1" page="1" pageScale="1" pageWidth="827" pageHeight="1169" math="0" shadow="0">
      <root>
        <mxCell id="0" />
        <mxCell id="1" parent="0" />
        <mxCell id="VzYkjXNxpJz7nn8vD5TT-3" value="" style="group;rounded=0;dashed=1;container=0;labelBackgroundColor=none;" vertex="1" connectable="0" parent="1">
          <mxGeometry x="1032.25" y="170" width="60" height="417" as="geometry" />
        </mxCell>
        <mxCell id="VzYkjXNxpJz7nn8vD5TT-15" value="" style="rounded=0;whiteSpace=wrap;html=1;labelBackgroundColor=none;dashed=1;fillColor=#f8cecc;strokeColor=#b85450;" vertex="1" parent="1">
          <mxGeometry x="240" y="267.6" width="180" height="208" as="geometry" />
        </mxCell>
        <mxCell id="VzYkjXNxpJz7nn8vD5TT-16" value="数据脱敏" style="text;align=center;html=1;verticalAlign=middle;whiteSpace=wrap;rounded=0;labelBackgroundColor=none;fontStyle=1;fontSize=14;" vertex="1" parent="1">
          <mxGeometry x="244.46294117647057" y="282.75459854014593" width="89.11764705882354" height="32.846715328467155" as="geometry" />
        </mxCell>
        <mxCell id="VzYkjXNxpJz7nn8vD5TT-17" value="" style="rounded=0;whiteSpace=wrap;html=1;labelBackgroundColor=none;dashed=1;fillColor=#d5e8d4;strokeColor=#82b366;" vertex="1" parent="1">
          <mxGeometry x="40.15" y="267.6" width="180" height="208" as="geometry" />
        </mxCell>
        <mxCell id="VzYkjXNxpJz7nn8vD5TT-20" value="" style="rounded=0;whiteSpace=wrap;html=1;labelBackgroundColor=none;dashed=1;fillColor=#ffe6cc;strokeColor=#d79b00;" vertex="1" parent="1">
          <mxGeometry x="40.15" y="41.31" width="180" height="208" as="geometry" />
        </mxCell>
        <mxCell id="VzYkjXNxpJz7nn8vD5TT-21" value="统一认证" style="rounded=0;whiteSpace=wrap;html=1;labelBackgroundColor=none;" vertex="1" parent="1">
          <mxGeometry x="58.51" y="101.98" width="141.49" height="35" as="geometry" />
        </mxCell>
        <mxCell id="VzYkjXNxpJz7nn8vD5TT-22" value="SSL数据加密" style="rounded=0;whiteSpace=wrap;html=1;labelBackgroundColor=none;" vertex="1" parent="1">
          <mxGeometry x="57.02" y="153.8" width="142.98" height="35" as="geometry" />
        </mxCell>
        <mxCell id="VzYkjXNxpJz7nn8vD5TT-23" value="数据权限" style="rounded=0;whiteSpace=wrap;html=1;labelBackgroundColor=none;" vertex="1" parent="1">
          <mxGeometry x="58.51" y="204.05" width="141.49" height="35" as="geometry" />
        </mxCell>
        <mxCell id="VzYkjXNxpJz7nn8vD5TT-25" value="认证授权" style="text;align=center;html=1;verticalAlign=middle;whiteSpace=wrap;rounded=0;labelBackgroundColor=none;fontStyle=1;fontSize=14;" vertex="1" parent="1">
          <mxGeometry x="40.002941176470586" y="58.72992700729924" width="89.11764705882354" height="32.846715328467155" as="geometry" />
        </mxCell>
        <mxCell id="VzYkjXNxpJz7nn8vD5TT-31" value="数据加密" style="text;align=center;html=1;verticalAlign=middle;whiteSpace=wrap;rounded=0;labelBackgroundColor=none;fontStyle=1;fontSize=14;" vertex="1" parent="1">
          <mxGeometry x="49.85294117647058" y="286.8045985401459" width="89.11764705882354" height="32.846715328467155" as="geometry" />
        </mxCell>
        <mxCell id="VzYkjXNxpJz7nn8vD5TT-56" value="" style="rounded=0;whiteSpace=wrap;html=1;labelBackgroundColor=none;dashed=1;fillColor=#e1d5e7;strokeColor=#9673a6;" vertex="1" parent="1">
          <mxGeometry x="40.15" y="488.1" width="379.85" height="51.9" as="geometry" />
        </mxCell>
        <mxCell id="VzYkjXNxpJz7nn8vD5TT-59" value="存储加密" style="rounded=0;whiteSpace=wrap;html=1;labelBackgroundColor=none;" vertex="1" parent="1">
          <mxGeometry x="57.57000000000002" y="337.6" width="140.43" height="35" as="geometry" />
        </mxCell>
        <mxCell id="VzYkjXNxpJz7nn8vD5TT-60" value="传输加密" style="rounded=0;whiteSpace=wrap;html=1;labelBackgroundColor=none;" vertex="1" parent="1">
          <mxGeometry x="56.12999999999997" y="407.6" width="140.43" height="35" as="geometry" />
        </mxCell>
        <mxCell id="VzYkjXNxpJz7nn8vD5TT-61" value="敏感数据识别" style="rounded=0;whiteSpace=wrap;html=1;labelBackgroundColor=none;" vertex="1" parent="1">
          <mxGeometry x="263.80000000000007" y="337.6" width="140.43" height="35" as="geometry" />
        </mxCell>
        <mxCell id="VzYkjXNxpJz7nn8vD5TT-62" value="" style="rounded=0;whiteSpace=wrap;html=1;labelBackgroundColor=none;dashed=1;fillColor=#dae8fc;strokeColor=#6c8ebf;" vertex="1" parent="1">
          <mxGeometry x="240" y="41.309999999999995" width="180" height="208" as="geometry" />
        </mxCell>
        <mxCell id="VzYkjXNxpJz7nn8vD5TT-63" value="数据共享安全" style="text;align=center;html=1;verticalAlign=middle;whiteSpace=wrap;rounded=0;labelBackgroundColor=none;fontStyle=1;fontSize=14;" vertex="1" parent="1">
          <mxGeometry x="259.0829411764705" y="54.31459854014591" width="89.11764705882354" height="32.846715328467155" as="geometry" />
        </mxCell>
        <mxCell id="VzYkjXNxpJz7nn8vD5TT-64" value="接口数据" style="rounded=0;whiteSpace=wrap;html=1;labelBackgroundColor=none;" vertex="1" parent="1">
          <mxGeometry x="259.08000000000004" y="97.74000000000004" width="140.43" height="35" as="geometry" />
        </mxCell>
        <mxCell id="VzYkjXNxpJz7nn8vD5TT-65" value="流式数据" style="rounded=0;whiteSpace=wrap;html=1;labelBackgroundColor=none;" vertex="1" parent="1">
          <mxGeometry x="260.30000000000007" y="150.16" width="140.43" height="35" as="geometry" />
        </mxCell>
        <mxCell id="VzYkjXNxpJz7nn8vD5TT-66" value="文件共享" style="rounded=0;whiteSpace=wrap;html=1;labelBackgroundColor=none;" vertex="1" parent="1">
          <mxGeometry x="260.30000000000007" y="204.20999999999995" width="140.43" height="35" as="geometry" />
        </mxCell>
        <mxCell id="VzYkjXNxpJz7nn8vD5TT-68" value="敏感数据脱敏" style="rounded=0;whiteSpace=wrap;html=1;labelBackgroundColor=none;" vertex="1" parent="1">
          <mxGeometry x="263.80000000000007" y="405.6" width="140.43" height="35" as="geometry" />
        </mxCell>
        <mxCell id="VzYkjXNxpJz7nn8vD5TT-70" value="数据容灾备份" style="rounded=0;whiteSpace=wrap;html=1;labelBackgroundColor=none;" vertex="1" parent="1">
          <mxGeometry x="159.99999999999997" y="496.20000000000005" width="140.43" height="35" as="geometry" />
        </mxCell>
        <mxCell id="VzYkjXNxpJz7nn8vD5TT-71" value="" style="rounded=0;whiteSpace=wrap;html=1;labelBackgroundColor=none;dashed=1;fillColor=#fff2cc;strokeColor=#d6b656;" vertex="1" parent="1">
          <mxGeometry x="41.13" y="553" width="378.87" height="50" as="geometry" />
        </mxCell>
        <mxCell id="VzYkjXNxpJz7nn8vD5TT-72" value="数据访问日志审计" style="rounded=0;whiteSpace=wrap;html=1;labelBackgroundColor=none;" vertex="1" parent="1">
          <mxGeometry x="165.3499999999999" y="561.1" width="140.43" height="35" as="geometry" />
        </mxCell>
      </root>
    </mxGraphModel>
  </diagram>
</mxfile>
